<svg width="64" height="64" viewBox="25 0 50 62" fill="none" xmlns="http://www.w3.org/2000/svg">
    <defs>
        <linearGradient id="logoGradient" x1="0%" y1="0%" x2="100%" y2="100%">
            <stop offset="0%" stop-color="#6366f1"></stop>
            <stop offset="100%" stop-color="#06b6d4"></stop>
        </linearGradient>
        <linearGradient id="beamGradient" x1="0%" y1="0%" x2="100%" y2="0%">
            <stop offset="0%" stop-color="#06b6d4" stop-opacity="0.3"></stop>
            <stop offset="50%" stop-color="#6366f1" stop-opacity="0.6"></stop>
            <stop offset="100%" stop-color="#06b6d4" stop-opacity="0.3"></stop>
        </linearGradient>
    </defs>
    {/* Ultra-tight zoom on head and antenna (25 0 50 62) */}
    <path d="M50 10 L70 22.5 L70 47.5 L50 60 L30 47.5 L30 22.5 Z" fill="url(#logoGradient)" stroke="#06b6d4" stroke-width="0.5" opacity="0.9"></path>
    <circle cx="42" cy="35" r="4" fill="white" opacity="0.95"></circle>
    <circle cx="58" cy="35" r="4" fill="white" opacity="0.95"></circle>
    <path d="M50 10 L50 2" stroke="url(#logoGradient)" stroke-width="2.5" stroke-linecap="round"></path>
    <circle cx="50" cy="2" r="2.5" fill="url(#logoGradient)"></circle>
    
    <g opacity="0.4" stroke="white" stroke-width="1.5" fill="none">
        <path d="M35 30 L38 30 L38 27"></path>
        <path d="M62 30 L65 30 L65 27"></path>
        <circle cx="38" cy="27" r="1.5" fill="white"></circle>
        <circle cx="65" cy="27" r="1.5" fill="white"></circle>
    </g>
    <rect x="45" y="40" width="10" height="8" rx="1" fill="white" opacity="0.3"></rect>
    <circle cx="50" cy="44" r="2" fill="url(#logoGradient)"></circle>
</svg>
